<svg style="display: none" xmlns="http://www.w3.org/2000/svg">
    <symbol id="img-logo">
		<g>
			<circle cx="16" cy="16" r="16" fill="#316099"/><circle xmlns="http://www.w3.org/2000/svg" cx="32" cy="16" r="15" fill="white" stroke="#316099" stroke-width="2"/><path xmlns="http://www.w3.org/2000/svg" fill="#316099" d="M39.3 22L34.38 8H30.96L26.06 22H29.04L29.88 19.48H35.46L36.3 22H39.3ZM32.68 11.18L34.6 16.9H30.76L32.68 11.18Z"/>
		</g>
	</symbol>
    <symbol id="img-menu-burger">
        <g>
            <path fill="#356EAD" d="M0 16H24V13.3333H0V16ZM0 9.33333H24V6.66667H0V9.33333ZM0 0V2.66667H24V0H0Z"/>
        </g>
    </symbol>
    <symbol id="cancel" xmlns="http://www.w3.org/2000/svg" viewBox="0 0 512.001 512.001">
        <g>
            <path d="M284.286,256.002L506.143,34.144c7.811-7.811,7.811-20.475,0-28.285c-7.811-7.81-20.475-7.811-28.285,0L256,227.717L34.143,5.859c-7.811-7.811-20.475-7.811-28.285,0c-7.81,7.811-7.811,20.475,0,28.285l221.857,221.857L5.858,477.859c-7.811,7.811-7.811,20.475,0,28.285c3.905,3.905,9.024,5.857,14.143,5.857c5.119,0,10.237-1.952,14.143-5.857L256,284.287l221.857,221.857c3.905,3.905,9.024,5.857,14.143,5.857s10.237-1.952,14.143-5.857c7.811-7.811,7.811-20.475,0-28.285L284.286,256.002z"/>
        </g>
    </symbol>
    <symbol id="blue-arrrow" width="16" height="16" viewBox="0 0 16 16" fill="none" xmlns="http://www.w3.org/2000/svg">
        <path d="M8 0L6.59 1.41L12.17 7H0V9H12.17L6.59 14.59L8 16L16 8L8 0Z" fill="#5A98D0"/>
    </symbol>
    <symbol id="footer-logo" width="48" height="32" viewBox="0 0 48 32" fill="none" xmlns="http://www.w3.org/2000/svg">
        <circle cx="16" cy="16" r="16" fill="#98C3E8"/>
        <circle cx="32" cy="16" r="15" fill="white" stroke="#316099" stroke-width="2"/>
        <path d="M38.3 23L33.38 9H29.96L25.06 23H28.04L28.88 20.48H34.46L35.3 23H38.3ZM31.68 12.18L33.6 17.9H29.76L31.68 12.18Z" fill="#316099"/>
    </symbol>
    <symbol id="success-svg" xmlns="http://www.w3.org/2000/svg" x="0px" y="0px" viewBox="0 0 367.805 367.805">
        <path style="fill:#3BB54A;" d="M183.903,0.001c101.566,0,183.902,82.336,183.902,183.902s-82.336,183.902-183.902,183.902S0.001,285.469,0.001,183.903l0,0C-0.288,82.625,81.579,0.29,182.856,0.001C183.205,0,183.554,0,183.903,0.001z"/>
        <polygon style="fill:#D4E1F4;" points="285.78,133.225 155.168,263.837 82.025,191.217 111.805,161.96 155.168,204.801 256.001,103.968"/>
    </symbol>
</svg>